<svg aria-hidden="true" style="width:0;height:0;position:absolute;overflow:hidden" xmlns="http://www.w3.org/2000/svg"><defs><symbol id="icon-arrow-left" viewBox="0 0 32 32"><path fill="currentColor" d="M15.494 5.394c-.132.068-1.99 1.88-4.88 4.764-2.568 2.56-4.748 4.708-4.848 4.776-.234.16-.498.726-.498 1.066 0 .32.266.91.47 1.046.084.056 2.266 2.204 4.848 4.776 3.312 3.298 4.764 4.708 4.93 4.792.47.234.956.116 1.418-.346s.582-.948.346-1.418c-.082-.166-1.202-1.324-3.75-3.876l-3.634-3.638 15.944-.03.214-.114c.444-.238.582-.518.584-1.192.002-.444-.014-.536-.132-.744a1.152 1.152 0 0 0-.391-.397l-.005-.003-.262-.162-15.952-.03 3.634-3.638c2.548-2.552 3.668-3.71 3.75-3.876.236-.47.116-.956-.346-1.418-.452-.454-.978-.576-1.44-.338z"/></symbol><symbol id="icon-arrow-right" viewBox="0 0 32 32"><path fill="currentColor" d="M15.502 5.394a2.22 2.22 0 0 0-.778.787l-.006.011a1.061 1.061 0 0 0 .004.964l-.003-.006c.082.166 1.202 1.324 3.75 3.876l3.634 3.638-15.952.03-.262.162c-.356.218-.512.51-.544 1.006-.042.646.144 1.07.576 1.312l.238.132 15.944.03-3.634 3.638c-2.548 2.552-3.668 3.71-3.75 3.876-.236.47-.116.956.346 1.418s.948.58 1.418.346c.166-.084 1.618-1.494 4.93-4.792 2.582-2.572 4.764-4.72 4.848-4.776.204-.136.47-.726.47-1.046 0-.34-.264-.906-.498-1.066-.1-.068-2.28-2.216-4.848-4.776-3.154-3.146-4.738-4.69-4.89-4.766a1.173 1.173 0 0 0-1.001.005l.007-.003z"/></symbol><symbol id="icon-close" viewBox="0 0 32 32"><path fill="currentColor" d="m8.507 8.533-.746.748L14.48 16l-6.693 6.693.759.761.761.759L16 17.52l6.693 6.693.761-.759.759-.761L17.52 16l6.72-6.72-.761-.759-.759-.761L16 14.48l-3.347-3.347c-1.84-1.84-3.359-3.346-3.374-3.346s-.363.336-.772.747z"/></symbol><symbol id="icon-favorite-footer" viewBox="0 0 32 32"><path fill="currentColor" d="M8.053 1.177c-.594.059-1.106.149-1.625.286C2.965 2.375.474 5.305.055 8.958c-.206 1.799.181 3.824 1.088 5.71 1.541 3.205 4.366 6.338 11.097 12.313.85.757 2.046 1.87 2.654 2.473L16 30.556l1.134-1.125a76.883 76.883 0 0 1 2.599-2.427c4.526-4.011 6.99-6.453 8.791-8.709 2.064-2.581 3.157-4.933 3.419-7.351.398-3.634-1.417-7.134-4.539-8.761a7.313 7.313 0 0 0-1.618-.662l-.053-.012a8.852 8.852 0 0 0-2.509-.354 9.08 9.08 0 0 0-2.113.248l.062-.012a9.051 9.051 0 0 0-2.34.876l.047-.024a9.113 9.113 0 0 0-2.28 1.642l.001-.001-.601.581-.601-.581a12.021 12.021 0 0 0-1.076-.918l-.03-.022a11.788 11.788 0 0 0-2.264-1.201l-.081-.028c-1.161-.43-2.747-.649-3.895-.537z"/></symbol><symbol id="icon-search" viewBox="0 0 32 32"><path fill="none" stroke="currentColor" stroke-linejoin="round" stroke-linecap="round" stroke-width="2.667" d="M14.667 25.333c5.891 0 10.667-4.776 10.667-10.667S20.558 3.999 14.667 3.999v0C8.776 3.999 4 8.775 4 14.666s4.776 10.667 10.667 10.667v0zM28 28l-5.8-5.8"/></symbol><symbol id="icon-film-logo" viewBox="0 0 32 32"><path fill="none" stroke="currentColor" stroke-linejoin="round" stroke-linecap="round" stroke-width="2.667" d="M26.427 2.667H5.574a2.907 2.907 0 0 0-2.907 2.907v20.853a2.907 2.907 0 0 0 2.907 2.907v0h20.853a2.907 2.907 0 0 0 2.907-2.907v0V5.574a2.907 2.907 0 0 0-2.907-2.907v0zm-17.094 0v26.667M22.667 2.667v26.667M2.667 16h26.667M2.667 9.333h6.667M2.667 22.667h6.667m13.333 0h6.667M22.667 9.333h6.667"/></symbol></defs></svg>