<svg aria-hidden="true" style="position: absolute; width: 0; height: 0; overflow: hidden;" version="1.1"
     xmlns="http://www.w3.org/2000/svg" xmlns:xlink="http://www.w3.org/1999/xlink">
  <defs>
    <symbol id="icon-arrow-left" viewBox="0 0 32 32">
      <path fill="currentColor"
            d="M15.494 5.394c-0.132 0.068-1.99 1.88-4.88 4.764-2.568 2.56-4.748 4.708-4.848 4.776-0.234 0.16-0.498 0.726-0.498 1.066 0 0.32 0.266 0.91 0.47 1.046 0.084 0.056 2.266 2.204 4.848 4.776 3.312 3.298 4.764 4.708 4.93 4.792 0.47 0.234 0.956 0.116 1.418-0.346s0.582-0.948 0.346-1.418c-0.082-0.166-1.202-1.324-3.75-3.876l-3.634-3.638 15.944-0.030 0.214-0.114c0.444-0.238 0.582-0.518 0.584-1.192 0.002-0.444-0.014-0.536-0.132-0.744-0.098-0.165-0.232-0.3-0.391-0.397l-0.005-0.003-0.262-0.162-15.952-0.030 3.634-3.638c2.548-2.552 3.668-3.71 3.75-3.876 0.236-0.47 0.116-0.956-0.346-1.418-0.452-0.454-0.978-0.576-1.44-0.338z">
      </path>
    </symbol>
    <symbol id="icon-arrow-right" viewBox="0 0 32 32">
      <path fill="currentColor"
            d="M15.502 5.394c-0.327 0.197-0.592 0.467-0.778 0.787l-0.006 0.011c-0.072 0.139-0.114 0.303-0.114 0.477 0 0.176 0.043 0.341 0.118 0.487l-0.003-0.006c0.082 0.166 1.202 1.324 3.75 3.876l3.634 3.638-15.952 0.030-0.262 0.162c-0.356 0.218-0.512 0.51-0.544 1.006-0.042 0.646 0.144 1.070 0.576 1.312l0.238 0.132 15.944 0.030-3.634 3.638c-2.548 2.552-3.668 3.71-3.75 3.876-0.236 0.47-0.116 0.956 0.346 1.418s0.948 0.58 1.418 0.346c0.166-0.084 1.618-1.494 4.93-4.792 2.582-2.572 4.764-4.72 4.848-4.776 0.204-0.136 0.47-0.726 0.47-1.046 0-0.34-0.264-0.906-0.498-1.066-0.1-0.068-2.28-2.216-4.848-4.776-3.154-3.146-4.738-4.69-4.89-4.766-0.145-0.069-0.315-0.109-0.495-0.109-0.181 0-0.353 0.041-0.506 0.114l0.007-0.003z">
      </path>
    </symbol>
    <symbol id="icon-close" viewBox="0 0 32 32">
      <path fill="currentColor"
            d="M8.507 8.533l-0.746 0.748 6.719 6.719-6.693 6.693 0.759 0.761 0.761 0.759 6.693-6.693 6.693 6.693 0.761-0.759 0.759-0.761-6.693-6.693 6.72-6.72-0.761-0.759-0.759-0.761-6.72 6.72-3.347-3.347c-1.84-1.84-3.359-3.346-3.374-3.346s-0.363 0.336-0.772 0.747z">
      </path>
    </symbol>
    <symbol id="icon-favorite-footer" viewBox="0 0 32 32">
      <path fill="currentColor"
            d="M8.053 1.177c-0.594 0.059-1.106 0.149-1.625 0.286-3.463 0.912-5.954 3.842-6.373 7.495-0.206 1.799 0.181 3.824 1.088 5.71 1.541 3.205 4.366 6.338 11.097 12.313 0.85 0.757 2.046 1.87 2.654 2.473l1.106 1.102 1.134-1.125c0.624-0.619 1.792-1.712 2.599-2.427 4.526-4.011 6.99-6.453 8.791-8.709 2.064-2.581 3.157-4.933 3.419-7.351 0.398-3.634-1.417-7.134-4.539-8.761-0.479-0.27-1.034-0.5-1.618-0.662l-0.053-0.012c-0.751-0.225-1.615-0.354-2.509-0.354-0.728 0-1.435 0.086-2.113 0.248l0.062-0.012c-0.867 0.198-1.632 0.491-2.34 0.876l0.047-0.024c-0.875 0.448-1.627 0.996-2.28 1.642l0.001-0.001-0.601 0.581-0.601-0.581c-0.337-0.324-0.698-0.632-1.076-0.918l-0.030-0.022c-0.675-0.462-1.448-0.875-2.264-1.201l-0.081-0.028c-1.161-0.43-2.747-0.649-3.895-0.537z">
      </path>
    </symbol>
    <symbol id="icon-search" viewBox="0 0 32 32">
      <path fill="none" stroke="currentColor" stroke-linejoin="round" stroke-linecap="round" stroke-miterlimit="4"
            stroke-width="2.6667"
            d="M14.667 25.333c5.891 0 10.667-4.776 10.667-10.667s-4.776-10.667-10.667-10.667v0c-5.891 0-10.667 4.776-10.667 10.667s4.776 10.667 10.667 10.667v0zM28 28l-5.8-5.8">
      </path>
    </symbol>
    <symbol id="icon-film-logo" viewBox="0 0 32 32">
      <path fill="none" stroke="currentColor" stroke-linejoin="round" stroke-linecap="round" stroke-miterlimit="4"
            stroke-width="2.6667"
            d="M26.427 2.667h-20.853c-1.605 0-2.907 1.301-2.907 2.907v0 20.853c0 1.605 1.301 2.907 2.907 2.907v0h20.853c1.605 0 2.907-1.301 2.907-2.907v0-20.853c0-1.605-1.301-2.907-2.907-2.907v0zM9.333 2.667v26.667M22.667 2.667v26.667M2.667 16h26.667M2.667 9.333h6.667M2.667 22.667h6.667M22.667 22.667h6.667M22.667 9.333h6.667">
      </path>
    </symbol>
    <symbol id="icon-button" viewBox="0 0 24 24">
      <path fill="none" stroke="currentColor" stroke-linejoin="round" stroke-linecap="round" stroke-miterlimit="4"
        d="M18 20c-.384 0-.768-.146-1.061-.439l-4.938-4.939-4.94 4.939A1.5 1.5 0 1 1 4.94 17.44l6.001-6a1.504 1.504 0 0 1 2.122 0l5.999 6A1.5 1.5 0 0 1 18.001 20Zm1.067-7.708a1.5 1.5 0 0 0-.014-2.121l-3.922-3.873C14.294 5.461 13.183 5 11.999 5s-2.295.461-3.124 1.291l-3.93 3.88a1.5 1.5 0 1 0 2.107 2.135l3.938-3.887c.537-.539 1.473-.546 2.025.007l3.93 3.88c.292.289.673.433 1.054.433.387 0 .774-.149 1.067-.446Z">
      </path>
    </symbol>
    <symbol id="icon-github_icon" viewBox="0 0 32 32">
      <path fill="currentColor"
            d="M16 3.2c-7.069 0-12.8 5.731-12.8 12.8 0 5.998 4.13 11.017 9.698 12.405-0.062-0.178-0.098-0.384-0.098-0.598 0-0.008 0-0.017 0-0.025v0.001-2.188h-1.609c-0.876 0-1.654-0.377-2.032-1.076-0.419-0.778-0.492-1.967-1.531-2.694-0.308-0.242-0.074-0.518 0.282-0.481 0.656 0.186 1.2 0.636 1.712 1.303 0.51 0.669 0.75 0.82 1.702 0.82 0.462 0 1.153-0.027 1.804-0.129 0.35-0.889 0.955-1.707 1.694-2.093-4.262-0.438-6.297-2.559-6.297-5.438 0-1.239 0.528-2.438 1.425-3.449-0.294-1.003-0.665-3.047 0.113-3.826 1.918 0 3.077 1.244 3.356 1.58 0.923-0.325 1.987-0.513 3.095-0.513 0.005 0 0.009 0 0.014 0h-0.001c1.105 0 2.159 0.186 3.117 0.515 0.275-0.334 1.436-1.582 3.358-1.582 0.781 0.78 0.406 2.833 0.109 3.834 0.892 1.008 1.417 2.204 1.417 3.441 0 2.877-2.031 4.996-6.287 5.437 1.171 0.611 2.026 2.329 2.026 3.622v2.916c0 0.111-0.025 0.191-0.037 0.286 4.988-1.748 8.571-6.484 8.571-12.069 0-7.069-5.731-12.8-12.8-12.8z"></path>
    </symbol>
    <symbol id="icon-linkedin_icon" viewBox="0 0 32 32">
      <path fill="currentColor"
            d="M25.333 0h-18.667c-3.682 0-6.667 2.985-6.667 6.667v0 18.667c0 3.682 2.985 6.667 6.667 6.667v0h18.667c3.682 0 6.667-2.985 6.667-6.667v0-18.667c0-3.682-2.985-6.667-6.667-6.667v0zM10.667 25.333h-4v-14.667h4v14.667zM8.667 8.976c-1.288 0-2.333-1.053-2.333-2.352s1.045-2.352 2.333-2.352 2.333 1.053 2.333 2.352-1.044 2.352-2.333 2.352zM26.667 25.333h-4v-7.472c0-4.491-5.333-4.151-5.333 0v7.472h-4v-14.667h4v2.353c1.861-3.448 9.333-3.703 9.333 3.301v9.012z"></path>
    </symbol>
    <symbol id="youtube-play" viewBox="0 0 32 32">
      <path fill="#f78f8f" style="fill: var(--color1, #f78f8f)"
            d="M30.268 23.113c-0.303 1.568-1.592 2.763-3.184 2.987-2.502 0.373-6.488 0.8-11.188 0.8-4.624 0-8.634-0.427-11.212-0.8-1.592-0.224-2.881-1.419-3.184-2.987-0.303-1.717-0.54-3.956-0.54-7.092s0.287-5.375 0.59-7.092c0.303-1.568 1.592-2.763 3.184-2.987 2.502-0.373 6.512-0.843 11.212-0.843s8.61 0.469 11.188 0.843c1.592 0.224 2.881 1.419 3.184 2.987 0.303 1.717 0.698 3.956 0.698 7.092-0.076 3.136-0.445 5.375-0.748 7.092z"></path>
      <path fill="#c74343" style="fill: var(--color2, #c74343)"
            d="M15.962 5.2c4.688 0 8.74 0.444 11.316 0.818 1.434 0.202 2.578 1.273 2.846 2.66 0.29 1.644 0.676 4.192 0.676 7.313-0.085 3.53-0.46 6.109-0.675 7.326-0.27 1.393-1.414 2.465-2.85 2.667-1.646 0.246-6.043 0.817-11.312 0.817-4.935 0-9.207-0.512-11.316-0.818-1.434-0.202-2.578-1.273-2.846-2.66-0.274-1.551-0.6-4.080-0.6-7.322s0.326-5.771 0.599-7.316c0.27-1.393 1.414-2.465 2.85-2.667 1.646-0.246 6.043-0.817 11.312-0.817zM15.962 4.8c-4.7 0-8.87 0.448-11.372 0.821-1.592 0.224-2.881 1.419-3.184 2.987-0.303 1.717-0.606 4.256-0.606 7.392s0.303 5.675 0.606 7.392c0.303 1.568 1.592 2.763 3.184 2.987 2.578 0.373 6.747 0.821 11.372 0.821 4.7 0 8.87-0.448 11.372-0.821 1.592-0.224 2.881-1.419 3.184-2.987 0.303-1.717 0.606-4.256 0.682-7.392 0-3.136-0.379-5.675-0.682-7.392-0.303-1.568-1.592-2.763-3.184-2.987-2.578-0.373-6.671-0.821-11.372-0.821v0z"></path>
      <path fill="#fff" style="fill: var(--color3, #fff)" d="M12.8 21.2v-10.4l9.6 5.2z"></path>
    </symbol>
  </defs>
</svg>