<svg aria-hidden="true" style="position: absolute; width: 0; height: 0; overflow: hidden;" version="1.1"
  xmlns="http://www.w3.org/2000/svg" xmlns:xlink="http://www.w3.org/1999/xlink">
  <defs>
    <symbol id="icon-arrow-left" viewBox="0 0 32 32">
      <path fill="currentColor"
        d="M15.494 5.394c-0.132 0.068-1.99 1.88-4.88 4.764-2.568 2.56-4.748 4.708-4.848 4.776-0.234 0.16-0.498 0.726-0.498 1.066 0 0.32 0.266 0.91 0.47 1.046 0.084 0.056 2.266 2.204 4.848 4.776 3.312 3.298 4.764 4.708 4.93 4.792 0.47 0.234 0.956 0.116 1.418-0.346s0.582-0.948 0.346-1.418c-0.082-0.166-1.202-1.324-3.75-3.876l-3.634-3.638 15.944-0.030 0.214-0.114c0.444-0.238 0.582-0.518 0.584-1.192 0.002-0.444-0.014-0.536-0.132-0.744-0.098-0.165-0.232-0.3-0.391-0.397l-0.005-0.003-0.262-0.162-15.952-0.030 3.634-3.638c2.548-2.552 3.668-3.71 3.75-3.876 0.236-0.47 0.116-0.956-0.346-1.418-0.452-0.454-0.978-0.576-1.44-0.338z">
      </path>
    </symbol>
    <symbol id="icon-arrow-right" viewBox="0 0 32 32">
      <path fill="currentColor"
        d="M15.502 5.394c-0.327 0.197-0.592 0.467-0.778 0.787l-0.006 0.011c-0.072 0.139-0.114 0.303-0.114 0.477 0 0.176 0.043 0.341 0.118 0.487l-0.003-0.006c0.082 0.166 1.202 1.324 3.75 3.876l3.634 3.638-15.952 0.030-0.262 0.162c-0.356 0.218-0.512 0.51-0.544 1.006-0.042 0.646 0.144 1.070 0.576 1.312l0.238 0.132 15.944 0.030-3.634 3.638c-2.548 2.552-3.668 3.71-3.75 3.876-0.236 0.47-0.116 0.956 0.346 1.418s0.948 0.58 1.418 0.346c0.166-0.084 1.618-1.494 4.93-4.792 2.582-2.572 4.764-4.72 4.848-4.776 0.204-0.136 0.47-0.726 0.47-1.046 0-0.34-0.264-0.906-0.498-1.066-0.1-0.068-2.28-2.216-4.848-4.776-3.154-3.146-4.738-4.69-4.89-4.766-0.145-0.069-0.315-0.109-0.495-0.109-0.181 0-0.353 0.041-0.506 0.114l0.007-0.003z">
      </path>
    </symbol>
    <symbol id="icon-close" viewBox="0 0 32 32">
      <path fill="currentColor"
        d="M8.507 8.533l-0.746 0.748 6.719 6.719-6.693 6.693 0.759 0.761 0.761 0.759 6.693-6.693 6.693 6.693 0.761-0.759 0.759-0.761-6.693-6.693 6.72-6.72-0.761-0.759-0.759-0.761-6.72 6.72-3.347-3.347c-1.84-1.84-3.359-3.346-3.374-3.346s-0.363 0.336-0.772 0.747z">
      </path>
    </symbol>
    <symbol id="icon-favorite-footer" viewBox="0 0 32 32">
      <path fill="currentColor"
        d="M8.053 1.177c-0.594 0.059-1.106 0.149-1.625 0.286-3.463 0.912-5.954 3.842-6.373 7.495-0.206 1.799 0.181 3.824 1.088 5.71 1.541 3.205 4.366 6.338 11.097 12.313 0.85 0.757 2.046 1.87 2.654 2.473l1.106 1.102 1.134-1.125c0.624-0.619 1.792-1.712 2.599-2.427 4.526-4.011 6.99-6.453 8.791-8.709 2.064-2.581 3.157-4.933 3.419-7.351 0.398-3.634-1.417-7.134-4.539-8.761-0.479-0.27-1.034-0.5-1.618-0.662l-0.053-0.012c-0.751-0.225-1.615-0.354-2.509-0.354-0.728 0-1.435 0.086-2.113 0.248l0.062-0.012c-0.867 0.198-1.632 0.491-2.34 0.876l0.047-0.024c-0.875 0.448-1.627 0.996-2.28 1.642l0.001-0.001-0.601 0.581-0.601-0.581c-0.337-0.324-0.698-0.632-1.076-0.918l-0.030-0.022c-0.675-0.462-1.448-0.875-2.264-1.201l-0.081-0.028c-1.161-0.43-2.747-0.649-3.895-0.537z">
      </path>
    </symbol>
    <symbol id="icon-search" viewBox="0 0 32 32">
      <path fill="none" stroke="currentColor" stroke-linejoin="round" stroke-linecap="round" stroke-miterlimit="4"
        stroke-width="2.6667"
        d="M14.667 25.333c5.891 0 10.667-4.776 10.667-10.667s-4.776-10.667-10.667-10.667v0c-5.891 0-10.667 4.776-10.667 10.667s4.776 10.667 10.667 10.667v0zM28 28l-5.8-5.8">
      </path>
    </symbol>
    <symbol id="icon-film-logo" viewBox="0 0 32 32">
      <path fill="none" stroke="currentColor" stroke-linejoin="round" stroke-linecap="round" stroke-miterlimit="4"
        stroke-width="2.6667"
        d="M26.427 2.667h-20.853c-1.605 0-2.907 1.301-2.907 2.907v0 20.853c0 1.605 1.301 2.907 2.907 2.907v0h20.853c1.605 0 2.907-1.301 2.907-2.907v0-20.853c0-1.605-1.301-2.907-2.907-2.907v0zM9.333 2.667v26.667M22.667 2.667v26.667M2.667 16h26.667M2.667 9.333h6.667M2.667 22.667h6.667M22.667 22.667h6.667M22.667 9.333h6.667">
      </path>
    </symbol>
  </defs>
</svg>