<svg aria-hidden="true" style="position: absolute; width: 0; height: 0; overflow: hidden;" version="1.1" xmlns="http://www.w3.org/2000/svg" xmlns:xlink="http://www.w3.org/1999/xlink">
<defs>
<symbol id="icon-ukraine" viewBox="0 0 43 32">
<path fill="#ffd500" style="fill: var(--color1, #ffd500)" d="M0 0h42.667v32h-42.667z"></path>
<path fill="#005bbb" style="fill: var(--color2, #005bbb)" d="M0 0h42.667v16h-42.667z"></path>
</symbol>
<symbol id="icon-united" viewBox="0 0 43 32">
<path fill="#bd3d44" style="fill: var(--color3, #bd3d44)" d="M0 0h60.801v2.462h-60.801zM0 4.923h60.801v2.462h-60.801zM0 9.846h60.801v2.462h-60.801zM0 14.769h60.801v2.462h-60.801zM0 19.692h60.801v2.462h-60.801zM0 24.616h60.801v2.462h-60.801zM0 29.539h60.801v2.462h-60.801z"></path>
<path fill="#fff" style="fill: var(--color4, #fff)" d="M0 2.462h60.801v2.462h-60.801zM0 7.385h60.801v2.462h-60.801zM0 12.308h60.801v2.462h-60.801zM0 17.231h60.801v2.462h-60.801zM0 22.154h60.801v2.462h-60.801zM0 27.077h60.801v2.462h-60.801z"></path>
<path fill="#192f5d" style="fill: var(--color5, #192f5d)" d="M0 0h24.32v17.231h-24.32z"></path>
<path fill="#fff" style="fill: var(--color4, #fff)" d="M2.027 0.738l0.221 0.681h0.716l-0.579 0.421 0.221 0.681-0.579-0.421-0.579 0.421 0.221-0.681-0.579-0.421h0.716zM6.080 0.738l0.221 0.681h0.716l-0.579 0.421 0.221 0.681-0.579-0.421-0.579 0.421 0.221-0.681-0.579-0.421h0.716zM10.133 0.738l0.221 0.681h0.716l-0.579 0.421 0.221 0.681-0.579-0.421-0.579 0.421 0.221-0.681-0.579-0.421h0.716zM14.187 0.738l0.221 0.681h0.716l-0.579 0.421 0.221 0.681-0.579-0.421-0.579 0.421 0.221-0.681-0.579-0.421h0.716zM18.24 0.738l0.221 0.681h0.716l-0.579 0.421 0.221 0.681-0.579-0.421-0.579 0.421 0.221-0.681-0.579-0.421h0.716zM22.294 0.738l0.221 0.681h0.716l-0.579 0.421 0.221 0.681-0.579-0.421-0.579 0.421 0.221-0.681-0.579-0.421h0.716zM4.053 2.461l0.221 0.681h0.716l-0.579 0.421 0.221 0.681-0.579-0.421-0.579 0.421 0.221-0.681-0.579-0.421h0.716zM8.107 2.461l0.221 0.681h0.716l-0.579 0.421 0.221 0.681-0.579-0.421-0.579 0.421 0.221-0.681-0.579-0.421h0.716zM12.16 2.461l0.221 0.681h0.716l-0.579 0.421 0.221 0.681-0.579-0.421-0.579 0.421 0.221-0.681-0.579-0.421h0.716zM16.214 2.461l0.221 0.681h0.716l-0.579 0.421 0.221 0.681-0.579-0.421-0.579 0.421 0.221-0.681-0.579-0.421h0.716zM20.267 2.461l0.221 0.681h0.716l-0.579 0.421 0.221 0.681-0.579-0.421-0.579 0.421 0.221-0.681-0.579-0.421h0.716zM2.027 4.184l0.221 0.681h0.716l-0.579 0.421 0.221 0.681-0.579-0.421-0.579 0.421 0.221-0.681-0.579-0.421h0.716zM6.080 4.184l0.221 0.681h0.716l-0.579 0.421 0.221 0.681-0.579-0.421-0.579 0.421 0.221-0.681-0.579-0.421h0.716zM10.133 4.184l0.221 0.681h0.716l-0.579 0.421 0.221 0.681-0.579-0.421-0.579 0.421 0.221-0.681-0.579-0.421h0.716zM14.187 4.184l0.221 0.681h0.716l-0.579 0.421 0.221 0.681-0.579-0.421-0.579 0.421 0.221-0.681-0.579-0.421h0.716zM18.24 4.184l0.221 0.681h0.716l-0.579 0.421 0.221 0.681-0.579-0.421-0.579 0.421 0.221-0.681-0.579-0.421h0.716zM22.294 4.184l0.221 0.681h0.716l-0.579 0.421 0.221 0.681-0.579-0.421-0.579 0.421 0.221-0.681-0.579-0.421h0.716zM4.053 5.907l0.221 0.681h0.716l-0.579 0.421 0.221 0.681-0.579-0.421-0.579 0.421 0.221-0.681-0.579-0.421h0.716zM8.107 5.907l0.221 0.681h0.716l-0.579 0.421 0.221 0.681-0.579-0.421-0.579 0.421 0.221-0.681-0.579-0.421h0.716zM12.16 5.907l0.221 0.681h0.716l-0.579 0.421 0.221 0.681-0.579-0.421-0.579 0.421 0.221-0.681-0.579-0.421h0.716zM16.214 5.907l0.221 0.681h0.716l-0.579 0.421 0.221 0.681-0.579-0.421-0.579 0.421 0.221-0.681-0.579-0.421h0.716zM20.267 5.907l0.221 0.681h0.716l-0.579 0.421 0.221 0.681-0.579-0.421-0.579 0.421 0.221-0.681-0.579-0.421h0.716zM2.027 7.63l0.221 0.681h0.716l-0.579 0.421 0.221 0.681-0.579-0.421-0.579 0.421 0.221-0.681-0.579-0.421h0.716zM6.080 7.63l0.221 0.681h0.716l-0.579 0.421 0.221 0.681-0.579-0.421-0.579 0.421 0.221-0.681-0.579-0.421h0.716zM10.133 7.63l0.221 0.681h0.716l-0.579 0.421 0.221 0.681-0.579-0.421-0.579 0.421 0.221-0.681-0.579-0.421h0.716zM14.187 7.63l0.221 0.681h0.716l-0.579 0.421 0.221 0.681-0.579-0.421-0.579 0.421 0.221-0.681-0.579-0.421h0.716zM18.24 7.63l0.221 0.681h0.716l-0.579 0.421 0.221 0.681-0.579-0.421-0.579 0.421 0.221-0.681-0.579-0.421h0.716zM22.294 7.63l0.221 0.681h0.716l-0.579 0.421 0.221 0.681-0.579-0.421-0.579 0.421 0.221-0.681-0.579-0.421h0.716zM4.053 9.353l0.221 0.681h0.716l-0.579 0.421 0.221 0.681-0.579-0.421-0.579 0.421 0.221-0.681-0.579-0.421h0.716zM8.107 9.353l0.221 0.681h0.716l-0.579 0.421 0.221 0.681-0.579-0.421-0.579 0.421 0.221-0.681-0.579-0.421h0.716zM12.16 9.353l0.221 0.681h0.716l-0.579 0.421 0.221 0.681-0.579-0.421-0.579 0.421 0.221-0.681-0.579-0.421h0.716zM16.214 9.353l0.221 0.681h0.716l-0.579 0.421 0.221 0.681-0.579-0.421-0.579 0.421 0.221-0.681-0.579-0.421h0.716zM20.267 9.353l0.221 0.681h0.716l-0.579 0.421 0.221 0.681-0.579-0.421-0.579 0.421 0.221-0.681-0.579-0.421h0.716zM2.027 11.076l0.221 0.681h0.716l-0.579 0.421 0.221 0.681-0.579-0.421-0.579 0.421 0.221-0.681-0.579-0.421h0.716zM6.080 11.076l0.221 0.681h0.716l-0.579 0.421 0.221 0.681-0.579-0.421-0.579 0.421 0.221-0.681-0.579-0.421h0.716zM10.133 11.076l0.221 0.681h0.716l-0.579 0.421 0.221 0.681-0.579-0.421-0.579 0.421 0.221-0.681-0.579-0.421h0.716zM14.187 11.076l0.221 0.681h0.716l-0.579 0.421 0.221 0.681-0.579-0.421-0.579 0.421 0.221-0.681-0.579-0.421h0.716zM18.24 11.076l0.221 0.681h0.716l-0.579 0.421 0.221 0.681-0.579-0.421-0.579 0.421 0.221-0.681-0.579-0.421h0.716zM22.294 11.076l0.221 0.681h0.716l-0.579 0.421 0.221 0.681-0.579-0.421-0.579 0.421 0.221-0.681-0.579-0.421h0.716zM4.053 12.799l0.221 0.681h0.716l-0.579 0.421 0.221 0.681-0.579-0.421-0.579 0.421 0.221-0.681-0.579-0.421h0.716zM8.107 12.799l0.221 0.681h0.716l-0.579 0.421 0.221 0.681-0.579-0.421-0.579 0.421 0.221-0.681-0.579-0.421h0.716zM12.16 12.799l0.221 0.681h0.716l-0.579 0.421 0.221 0.681-0.579-0.421-0.579 0.421 0.221-0.681-0.579-0.421h0.716zM16.214 12.799l0.221 0.681h0.716l-0.579 0.421 0.221 0.681-0.579-0.421-0.579 0.421 0.221-0.681-0.579-0.421h0.716zM20.267 12.799l0.221 0.681h0.716l-0.579 0.421 0.221 0.681-0.579-0.421-0.579 0.421 0.221-0.681-0.579-0.421h0.716zM2.027 14.522l0.221 0.681h0.716l-0.579 0.421 0.221 0.681-0.579-0.421-0.579 0.421 0.221-0.681-0.579-0.421h0.716zM6.080 14.522l0.221 0.681h0.716l-0.579 0.421 0.221 0.681-0.579-0.421-0.579 0.421 0.221-0.681-0.579-0.421h0.716zM10.133 14.522l0.221 0.681h0.716l-0.579 0.421 0.221 0.681-0.579-0.421-0.579 0.421 0.221-0.681-0.579-0.421h0.716zM14.187 14.522l0.221 0.681h0.716l-0.579 0.421 0.221 0.681-0.579-0.421-0.579 0.421 0.221-0.681-0.579-0.421h0.716zM18.24 14.522l0.221 0.681h0.716l-0.579 0.421 0.221 0.681-0.579-0.421-0.579 0.421 0.221-0.681-0.579-0.421h0.716zM22.294 14.522l0.221 0.681h0.716l-0.579 0.421 0.221 0.681-0.579-0.421-0.579 0.421 0.221-0.681-0.579-0.421h0.716z"></path>
</symbol>
</defs>
</svg>
