<svg xmlns="http://www.w3.org/2000/svg" viewBox="0 0 32 32">
  <path fill="currentColor" d="M15.494 5.394c-0.132 0.068-1.99 1.88-4.88 4.764-2.568 2.56-4.748 4.708-4.848 4.776-0.234 0.16-0.498 0.726-0.498 1.066 0 0.32 0.266 0.91 0.47 1.046 0.084 0.056 2.266 2.204 4.848 4.776 3.312 3.298 4.764 4.708 4.93 4.792 0.47 0.234 0.956 0.116 1.418-0.346s0.582-0.948 0.346-1.418c-0.082-0.166-1.202-1.324-3.75-3.876l-3.634-3.638 15.944-0.030 0.214-0.114c0.444-0.238 0.582-0.518 0.584-1.192 0.002-0.444-0.014-0.536-0.132-0.744-0.098-0.165-0.232-0.3-0.391-0.397l-0.005-0.003-0.262-0.162-15.952-0.030 3.634-3.638c2.548-2.552 3.668-3.71 3.75-3.876 0.236-0.47 0.116-0.956-0.346-1.418-0.452-0.454-0.978-0.576-1.44-0.338z"></path>
</svg>