<svg xmlns="http://www.w3.org/2000/svg" viewBox="0 0 32 32">
  <path fill="currentColor" d="M15.502 5.394c-0.327 0.197-0.592 0.467-0.778 0.787l-0.006 0.011c-0.072 0.139-0.114 0.303-0.114 0.477 0 0.176 0.043 0.341 0.118 0.487l-0.003-0.006c0.082 0.166 1.202 1.324 3.75 3.876l3.634 3.638-15.952 0.030-0.262 0.162c-0.356 0.218-0.512 0.51-0.544 1.006-0.042 0.646 0.144 1.070 0.576 1.312l0.238 0.132 15.944 0.030-3.634 3.638c-2.548 2.552-3.668 3.71-3.75 3.876-0.236 0.47-0.116 0.956 0.346 1.418s0.948 0.58 1.418 0.346c0.166-0.084 1.618-1.494 4.93-4.792 2.582-2.572 4.764-4.72 4.848-4.776 0.204-0.136 0.47-0.726 0.47-1.046 0-0.34-0.264-0.906-0.498-1.066-0.1-0.068-2.28-2.216-4.848-4.776-3.154-3.146-4.738-4.69-4.89-4.766-0.145-0.069-0.315-0.109-0.495-0.109-0.181 0-0.353 0.041-0.506 0.114l0.007-0.003z"></path>
</svg>