<svg xmlns="http://www.w3.org/2000/svg" viewBox="0 0 32 32">
  <path fill="currentColor" d="M8.053 1.177c-0.594 0.059-1.106 0.149-1.625 0.286-3.463 0.912-5.954 3.842-6.373 7.495-0.206 1.799 0.181 3.824 1.088 5.71 1.541 3.205 4.366 6.338 11.097 12.313 0.85 0.757 2.046 1.87 2.654 2.473l1.106 1.102 1.134-1.125c0.624-0.619 1.792-1.712 2.599-2.427 4.526-4.011 6.99-6.453 8.791-8.709 2.064-2.581 3.157-4.933 3.419-7.351 0.398-3.634-1.417-7.134-4.539-8.761-0.479-0.27-1.034-0.5-1.618-0.662l-0.053-0.012c-0.751-0.225-1.615-0.354-2.509-0.354-0.728 0-1.435 0.086-2.113 0.248l0.062-0.012c-0.867 0.198-1.632 0.491-2.34 0.876l0.047-0.024c-0.875 0.448-1.627 0.996-2.28 1.642l0.001-0.001-0.601 0.581-0.601-0.581c-0.337-0.324-0.698-0.632-1.076-0.918l-0.030-0.022c-0.675-0.462-1.448-0.875-2.264-1.201l-0.081-0.028c-1.161-0.43-2.747-0.649-3.895-0.537z"></path>
</svg>