<svg xmlns="http://www.w3.org/2000/svg"  viewBox="0 0 80 80" width="80px" height="80px"><path fill="#f78f8f" d="M75.67,57.783c-0.758,3.92-3.98,6.907-7.96,7.467c-6.254,0.933-16.219,2-27.97,2 c-11.561,0-21.586-1.067-28.03-2c-3.98-0.56-7.202-3.547-7.96-7.467c-0.758-4.293-1.351-9.89-1.351-17.73s0.718-13.437,1.476-17.73 c0.758-3.92,3.98-6.907,7.96-7.467c6.254-0.933,16.28-2.107,28.03-2.107s21.526,1.173,27.97,2.107c3.98,0.56,7.202,3.547,7.96,7.467 c0.758,4.293,1.746,9.89,1.746,17.73C77.351,47.893,76.428,53.49,75.67,57.783z"/><path fill="#c74343" d="M39.905,13c11.72,0,21.851,1.111,28.29,2.044c3.584,0.504,6.444,3.183,7.115,6.65 C76.035,25.804,77,32.173,77,39.976c-0.213,8.826-1.151,15.273-1.688,18.314c-0.674,3.483-3.534,6.162-7.126,6.668 C64.072,65.572,53.078,67,39.905,67c-12.338,0-23.018-1.28-28.29-2.044c-3.584-0.504-6.444-3.183-7.115-6.65 C3.816,54.428,3,48.105,3,40s0.816-14.428,1.498-18.29c0.674-3.483,3.534-6.162,7.126-6.668C15.739,14.428,26.732,13,39.905,13 M39.905,12c-11.751,0-22.175,1.12-28.429,2.053c-3.98,0.56-7.202,3.547-7.96,7.467C2.758,25.813,2,32.16,2,40 s0.758,14.187,1.516,18.48c0.758,3.92,3.98,6.907,7.96,7.467C17.92,66.88,28.344,68,39.905,68c11.751,0,22.175-1.12,28.429-2.053 c3.98-0.56,7.202-3.547,7.96-7.467C77.052,54.187,77.81,47.84,78,40c0-7.84-0.948-14.187-1.706-18.48 c-0.758-3.92-3.98-6.907-7.96-7.467C61.89,13.12,51.656,12,39.905,12L39.905,12z"/><path fill="#fff" d="M32 53L32 27 56 40z"/></svg>